<svg width="389" height="627" viewBox="0 0 389 627" fill="none" xmlns="http://www.w3.org/2000/svg">
<path d="M259.514 1.10493C237.481 -3.60505 215.856 10.459 211.211 32.5186C206.58 54.5818 220.685 76.2837 242.717 80.9937C264.754 85.7121 286.383 71.6348 291.024 49.5884C295.664 27.5204 281.554 5.81007 259.514 1.10493ZM174.303 83.4155C181.678 92.7258 191.08 100.227 202.072 104.718L238.564 119.595C257.382 127.269 278.51 127.822 297.361 120.308C301.844 118.515 306.59 117.196 311.554 116.412C348.776 110.517 383.738 136.868 388.062 174.829C391.922 208.715 369.053 240.323 335.733 247.19C290.851 256.456 269.808 223.703 261.088 201.713C256.187 189.374 246.401 179.62 234.115 174.612L203.314 162.046C184.127 154.215 162.866 167.016 160.783 187.631L158.372 211.546C155.542 239.689 164.666 267.525 182.731 289.336C191.919 300.432 198.355 314.056 200.806 329.31C208.205 375.382 176.365 418.594 129.958 424.811C86.9014 430.583 44.3296 399.255 36.8813 356.347C31.4836 325.252 44.0138 295.337 66.9146 277.078C88.8925 259.542 103.215 234.144 106.039 206.106L110.614 160.711C111.829 148.692 110.047 136.511 105.083 125.496C103.615 122.257 102.563 118.79 101.975 115.121C99.3774 98.9555 106.623 83.5103 119.271 74.8872L123.186 72.5371C127.03 70.5082 131.268 69.0463 135.804 68.3309C150.908 65.9357 165.415 72.1803 174.303 83.4155Z" fill="url(#paint0_linear_1_114)"/>
<path d="M-235.141 545.819C-257.173 541.109 -278.799 555.173 -283.438 577.241C-288.079 599.288 -273.97 620.998 -251.938 625.708C-229.892 630.422 -208.275 616.362 -203.635 594.294C-198.991 572.235 -213.096 550.533 -235.141 545.819ZM-169.353 548.832C-176.239 539.15 -185.262 531.183 -196.006 526.135L-231.7 509.409C-250.108 500.781 -271.181 499.145 -290.39 505.69C-294.957 507.241 -299.773 508.32 -304.767 508.841C-342.244 512.824 -375.817 484.719 -378.2 446.6C-380.325 412.563 -355.869 382.178 -322.237 377.011C-276.945 370.061 -257.587 403.843 -249.999 426.251C-245.743 438.828 -236.464 449.076 -224.449 454.7L-194.32 468.83C-175.559 477.623 -153.663 465.944 -150.531 445.462L-146.909 421.709C-142.633 393.75 -150.343 365.479 -167.266 342.785C-175.875 331.22 -181.601 317.298 -183.273 301.941C-188.311 255.548 -154.308 214.031 -107.638 210.203C-64.3298 206.648 -23.4104 240.105 -18.1585 283.33C-14.3502 314.671 -28.4016 343.886 -52.2067 360.966C-75.0577 377.338 -90.6634 401.965 -94.9115 429.818L-101.803 474.916C-103.631 486.841 -102.464 499.097 -98.0618 510.359C-96.781 513.66 -95.8988 517.181 -95.5007 520.87C-93.7331 537.145 -101.748 552.206 -114.827 560.16L-118.854 562.317C-122.805 564.14 -127.113 565.384 -131.676 565.858C-146.893 567.478 -161.054 560.497 -169.353 548.832Z" fill="url(#paint1_linear_1_114)"/>
<defs>
<linearGradient id="paint0_linear_1_114" x1="301.667" y1="14.0156" x2="-305.696" y2="533.62" gradientUnits="userSpaceOnUse">
<stop stop-color="white" stop-opacity="0.652873"/>
<stop offset="0.403152" stop-color="#C7C7C7" stop-opacity="0.779455"/>
<stop offset="0.541007" stop-color="#EBEBEB" stop-opacity="0.692871"/>
<stop offset="0.819808" stop-color="#A4A4A4" stop-opacity="0.645026"/>
<stop offset="1" stop-opacity="0"/>
</linearGradient>
<linearGradient id="paint1_linear_1_114" x1="301.667" y1="14.0156" x2="-305.696" y2="533.62" gradientUnits="userSpaceOnUse">
<stop stop-color="white" stop-opacity="0.652873"/>
<stop offset="0.403152" stop-color="#C7C7C7" stop-opacity="0.779455"/>
<stop offset="0.541007" stop-color="#EBEBEB" stop-opacity="0.692871"/>
<stop offset="0.819808" stop-color="#A4A4A4" stop-opacity="0.645026"/>
<stop offset="1" stop-opacity="0"/>
</linearGradient>
</defs>
</svg>
