<svg width="96" height="197" viewBox="0 0 96 197" fill="none" xmlns="http://www.w3.org/2000/svg">
<path d="M2.66898 13.8036C-0.396728 18.2389 0.723193 24.3099 5.17056 27.3636C9.61992 30.4147 15.7115 29.2929 18.7772 24.8576C21.8452 20.422 20.7227 14.349 16.2779 11.2973C11.8283 8.24385 5.73439 9.36602 2.66898 13.8036ZM13.0243 40.1968C15.7593 39.423 18.281 38.035 20.2835 36.0189L26.9248 29.3231C30.35 25.8705 32.414 21.2528 32.4864 16.397C32.5021 15.2417 32.6471 14.0719 32.9301 12.9029C35.0485 4.13664 44.0844 -1.16659 52.8697 1.36699C60.7118 3.62878 65.5938 11.5867 64.0487 19.5803C61.9709 30.3489 52.7998 31.9883 47.1396 31.8938C43.9626 31.8426 40.908 33.1085 38.6721 35.3628L33.0646 41.0136C29.571 44.5334 30.4453 50.4076 34.8088 52.7626L39.8716 55.4934C45.8299 58.7054 52.8189 59.2479 59.2986 57.2608C62.5948 56.2506 66.1968 56.0807 69.7926 56.9411C80.6524 59.5409 87.2741 70.5477 84.3825 81.3732C81.7004 91.4174 70.8655 97.9445 60.7001 95.6466C53.3333 93.9813 47.875 88.4631 45.9453 81.7248C44.0906 75.2568 39.7952 69.7578 33.8594 66.5569L24.2497 61.3736C21.7056 60.0005 18.8504 59.2748 15.9601 59.3591C15.1096 59.3857 14.2468 59.2996 13.3822 59.0923C9.57151 58.1805 6.82473 55.1599 6.08185 51.5727L5.92244 50.4916C5.82742 49.4558 5.89396 48.3849 6.15275 47.3171C7.01172 43.7596 9.7249 41.1281 13.0243 40.1968Z" fill="url(#paint0_linear_1_109)"/>
<path d="M77.5635 173.167C74.4978 177.602 75.6177 183.673 80.0674 186.726C84.5121 189.778 90.606 188.656 93.6717 184.221C96.7394 179.783 95.6198 173.714 91.1701 170.661C86.7228 167.607 80.6312 168.729 77.5635 173.167ZM84.2758 158.907C81.5036 159.539 78.9139 160.8 76.8111 162.71L69.8346 169.06C66.2364 172.334 63.9379 176.84 63.6186 181.686C63.5416 182.837 63.3373 184.001 62.9935 185.152C60.429 193.799 51.1333 198.634 42.4915 195.657C34.7756 192.998 30.3094 184.802 32.259 176.896C34.8861 166.249 44.1297 165.077 49.7784 165.46C52.9486 165.675 56.0659 164.567 58.4128 162.429L64.304 157.071C67.9712 153.734 67.4031 147.822 63.1655 145.247L58.25 142.264C52.4652 138.749 45.5099 137.854 38.94 139.508C35.5935 140.347 31.9908 140.333 28.444 139.291C17.73 136.14 11.6817 124.811 15.1255 114.147C18.3205 104.251 29.4741 98.2846 39.5076 101.097C46.7826 103.136 51.9463 108.926 53.5323 115.756C55.0497 122.31 59.0568 128.021 64.8208 131.52L74.152 137.188C76.619 138.688 79.4343 139.556 82.3273 139.619C83.1745 139.639 84.0336 139.768 84.8851 140.019C88.6438 141.124 91.2349 144.279 91.7904 147.9L91.8968 148.988C91.9363 150.029 91.8154 151.095 91.5007 152.147C90.4602 155.658 87.616 158.146 84.2758 158.907Z" fill="url(#paint1_linear_1_109)"/>
<defs>
<linearGradient id="paint0_linear_1_109" x1="9.39603" y1="5.67616" x2="68.3831" y2="187.635" gradientUnits="userSpaceOnUse">
<stop stop-color="white"/>
<stop offset="0.853177" stop-opacity="0"/>
</linearGradient>
<linearGradient id="paint1_linear_1_109" x1="9.39603" y1="5.67616" x2="68.3831" y2="187.635" gradientUnits="userSpaceOnUse">
<stop stop-color="white"/>
<stop offset="0.853177" stop-opacity="0"/>
</linearGradient>
</defs>
</svg>
