<svg width="114" height="321" viewBox="0 0 114 321" fill="none" xmlns="http://www.w3.org/2000/svg">
<path d="M2.09021 38.9594C-1.25389 47.3193 2.82435 56.7878 11.1995 60.1079C19.5769 63.4231 29.0782 59.334 32.4223 50.9741C35.7701 42.6128 31.6869 33.142 23.3167 29.8242C14.9379 26.5054 5.43297 30.5958 2.09021 38.9594ZM28.7529 78.0852C32.9185 75.8096 36.5087 72.6131 39.0201 68.5868L47.3464 55.2184C51.6408 48.325 53.2862 40.0401 51.6004 32.1072C51.197 30.2204 50.9985 28.262 51.0252 26.2535C51.2184 11.194 63.9605 -0.796463 79.2052 0.0656192C92.8133 0.835482 103.718 11.979 104.171 25.5676C104.788 43.8721 90.4645 49.9474 81.2137 51.8959C76.0222 52.9925 71.519 56.1882 68.7159 60.6889L61.6849 71.9719C57.304 79.0003 60.9093 88.2396 68.8883 90.4531L78.1456 93.019C89.0395 96.0355 100.62 94.3231 110.432 88.6811C115.423 85.8121 121.225 84.1976 127.399 84.263C146.046 84.4623 160.915 99.9237 160.228 118.623C159.592 135.973 144.375 150.624 126.971 150.658C114.358 150.683 103.422 143.726 97.7771 133.472C92.355 123.63 83.3192 116.272 72.466 113.265L54.8948 108.395C50.2427 107.104 45.3244 106.983 40.65 108.194C39.2751 108.553 37.8383 108.733 36.3536 108.717C29.8106 108.648 24.2166 104.75 21.6748 99.1854L21.0137 97.4844C20.4743 95.8332 20.1849 94.065 20.2096 92.2303C20.2868 86.1191 23.7269 80.8269 28.7529 78.0852Z" fill="url(#paint0_linear_1_117)"/>
<path d="M183.219 270.609C179.875 278.968 183.953 288.437 192.332 291.756C200.702 295.074 210.207 290.983 213.551 282.623C216.897 274.258 212.82 264.794 204.441 261.475C196.066 258.155 186.565 262.244 183.219 270.609ZM188.851 244.899C184.572 246.957 180.824 249.973 178.11 253.864L169.11 266.793C164.467 273.46 162.399 281.65 163.679 289.659C163.981 291.562 164.08 293.532 163.948 295.534C162.984 310.565 149.645 321.89 134.47 320.253C120.919 318.79 110.604 307.103 110.841 293.507C111.165 275.197 125.779 269.855 135.118 268.381C140.36 267.554 145.023 264.592 148.05 260.239L155.652 249.327C160.383 242.532 157.263 233.117 149.407 230.5L140.296 227.468C129.572 223.894 117.915 225.021 107.833 230.153C102.696 232.762 96.8249 234.077 90.6632 233.698C72.0489 232.547 57.9937 216.348 59.6399 197.707C61.1663 180.408 77.11 166.551 94.4906 167.403C107.093 168.021 117.65 175.53 122.769 186.061C127.674 196.168 136.32 203.979 147.004 207.535L164.301 213.297C168.875 214.823 173.781 215.191 178.515 214.218C179.902 213.937 181.348 213.827 182.828 213.92C189.358 214.324 194.749 218.498 196.998 224.187L197.575 225.919C198.026 227.599 198.225 229.38 198.104 231.209C197.714 237.312 194.007 242.419 188.851 244.899Z" fill="url(#paint1_linear_1_117)"/>
<defs>
<linearGradient id="paint0_linear_1_117" x1="10.0242" y1="23.2282" x2="173.645" y2="297.575" gradientUnits="userSpaceOnUse">
<stop stop-color="white" stop-opacity="0.652873"/>
<stop offset="0.403152" stop-color="#C7C7C7" stop-opacity="0.779455"/>
<stop offset="0.541007" stop-color="#EBEBEB" stop-opacity="0.692871"/>
<stop offset="0.819808" stop-color="#A4A4A4" stop-opacity="0.645026"/>
<stop offset="1" stop-opacity="0"/>
</linearGradient>
<linearGradient id="paint1_linear_1_117" x1="10.0242" y1="23.2282" x2="173.645" y2="297.575" gradientUnits="userSpaceOnUse">
<stop stop-color="white" stop-opacity="0.652873"/>
<stop offset="0.403152" stop-color="#C7C7C7" stop-opacity="0.779455"/>
<stop offset="0.541007" stop-color="#EBEBEB" stop-opacity="0.692871"/>
<stop offset="0.819808" stop-color="#A4A4A4" stop-opacity="0.645026"/>
<stop offset="1" stop-opacity="0"/>
</linearGradient>
</defs>
</svg>
